<svg version="1" xmlns="http://www.w3.org/2000/svg" width="1354.667" height="1354.667" viewBox="0 0 1016.000000 1016.000000"><path d="M497.7.6c-.1.2-1.6.6-3.2.9-4.1.8-4.4.9-9 2.4-4.6 1.6-16.2 7.8-17.1 9.2-.3.6-1.6 1.4-2.7 2-1.2.5-4.4 2.2-7.2 3.9-2.7 1.6-6.2 3.5-7.7 4.2-1.6.7-2.8 1.6-2.8 2 0 .4-.4.8-1 .8-.5 0-6.4 3.2-13.2 7.1-13.1 7.7-16.8 9.8-23.8 13.7-2.5 1.3-4.9 2.8-5.5 3.2-1.2 1-8 4.8-12 6.9-1.6.8-3.6 2.1-4.3 2.8-.7.7-1.9 1.3-2.7 1.3-.7 0-1.5.3-1.7.7-.1.5-2.9 2.1-6 3.8-3.2 1.6-5.8 3.3-5.8 3.7 0 .5-.3.7-.7.6-.5-.2-5.2 2.3-10.5 5.5-5.3 3.1-10 5.7-10.3 5.7-.4 0-2 1-3.7 2.1-1.6 1.2-4.8 3.1-7.1 4.4-6.1 3.2-9.1 4.9-9.7 5.5-.3.3-1.8 1.2-3.5 2-1.6.8-3.2 1.8-3.5 2.1-.3.3-3.4 2.1-7 4s-6.7 3.7-7 4c-.3.4-2.5 1.7-5 2.9s-4.7 2.5-5 2.9c-.3.3-3.1 1.9-6.2 3.6-3.2 1.6-5.8 3.3-5.8 3.6 0 .4-1.1 1-2.4 1.3-1.4.3-3.1 1.2-3.8 1.9-1.3 1.1-5.8 3.7-13.3 7.6-1.6.9-3.1 1.9-3.3 2.3-.2.5-1 .8-1.8.8s-1.4.5-1.4 1c0 .6-.3.9-.7.8-1.7-.5-13.7 7.7-19.2 13-22.2 21.8-25.4 57.6-7.4 82.6 2 2.8 4.9 6.2 6.3 7.6 5.1 4.9 9 8 10 8 .5 0 1 .4 1 1 0 .5.7 1 1.5 1s1.5.3 1.5.8c0 .9 8.8 4.7 10.3 4.4.4-.1.7.3.7 1 0 .6.3.9.6.6.3-.4 1.9-.2 3.6.3 7.7 2.2 18.8 3.1 18.8 1.5 0-.7.3-.7 1.1.1.7.7 2.6.7 5.7.1 2.6-.4 5.7-1 6.9-1.2 1.2-.3 3-.9 4.1-1.5 1.1-.6 2.2-.7 2.6-.4.3.3.6.2.6-.4 0-.5.6-1 1.3-1 .7 0 6.1-2.7 12-6.1 5.9-3.4 11.1-6.2 11.7-6.2.5 0 1-.4 1-.8s1.9-1.8 4.3-3c2.3-1.2 7.4-4 11.2-6.2 3.9-2.2 8.5-4.8 10.3-5.7 1.7-.9 3.2-2 3.2-2.5 0-.4.8-.8 1.7-.8.9 0 2.4-.6 3.2-1.4.9-.7 3.6-2.5 6.1-3.8 2.5-1.4 10.4-5.9 17.7-10.1 7.2-4.2 14.9-8.6 17-9.8 2.1-1.2 5-3 6.6-4.1 1.5-1.1 2.7-1.6 2.7-1.2 0 .3.7 0 1.6-.7.9-.7 2.4-1.8 3.4-2.4 12.3-6.9 17-9.5 18.1-9.7 1.1-.2 1.3 10.5 1.5 58.7.1 41.6.5 60.3 1.3 63.5.6 2.5 1.4 5.6 1.7 7 1.3 6 8.9 18.4 15.5 25.1 3.8 3.8 7.3 6.9 7.8 6.9s1.6.6 2.4 1.4c1.3 1.3 13.1 7.6 14.2 7.6.3 0 .7.1 1 .1.3.1 1 .3 1.5.4.6.1 1.1.3 1.3.5.3.2 2.6.7 7.7 1.5 6.7 1 16.2.8 22.7-.6 7-1.5 19.9-7.1 23-10.1 1.3-1.2 2.3-1.8 2.3-1.4 0 .4 2.7-1.9 6-5.2 3.3-3.4 6-6.3 6-6.7 0-.3.8-1.4 1.8-2.5 2.1-2.3 8.2-14.3 8.8-17.3.2-1.2 1-5.2 1.7-8.9.9-4.9 1.2-22.1 1.2-64.1v-57.4l3.7 2.3c2.1 1.3 4 2.4 4.3 2.4.4 0 5.9 3.2 13.2 7.7 1.3.7 2.6 1.4 3 1.4.5 0 1.5.6 2.3 1.3.8.7 4.7 3 8.5 5.1 3.9 2.1 8.1 4.6 9.5 5.5 1.4 1 4.8 3 7.5 4.5 8.2 4.7 11.8 6.7 22.7 13 5.6 3.3 10.9 6.1 11.6 6.3.6.2 1.2.8 1.2 1.3 0 .6.4.8.9.4.5-.3 1.2-.1 1.5.4.5.7 9.8 6.2 37.6 22.1.8.4 4.6 2.7 8.3 4.9 3.8 2.3 7 4.1 7.3 4.1.2 0 3.8 2 7.8 4.5 4.1 2.5 7.9 4.5 8.5 4.5.6 0 1.1.4 1.1 1 0 .5.4 1 .8 1 1 0 28.1 15.5 29.4 16.8.6.6-.4 1.6-2.4 2.6-1.8.9-4 2.1-4.8 2.6-.8.6-12.1 7.1-25 14.5s-24.2 14-25 14.5c-.8.6-2.3 1.3-3.2 1.6-1 .4-1.8 1-1.8 1.5s-.3.8-.7.7c-.8-.3-13.2 6.7-19.4 10.8-1.9 1.3-3.8 2.4-4.2 2.4-.4 0-2.6 1.2-5 2.7-2.3 1.5-4.4 2.8-4.7 2.8-.3 0-1.6.8-3 1.7-2.3 1.4-17.2 10-26.5 15.3-4.1 2.3-13.4 7.6-36.5 21-7.4 4.3-14.4 8.3-15.5 8.9-1.1.6-2.2 1.4-2.5 1.7-.3.3-2 1.1-3.7 1.8-1.8.8-3.3 1.6-3.3 2 0 .4-1.2 1.2-2.7 1.9-1.6.6-4.1 2-5.8 3-2.5 1.6-41.3 24-55 31.8l-4 2.2-15.5-8.9c-8.5-4.9-16.2-9.3-17-9.9-.8-.5-5.1-3-9.5-5.5-10.3-5.9-9.9-5.6-17.8-10.4-3.8-2.3-7-4.1-7.3-4.1-.2 0-2.1-1.1-4.2-2.3-2-1.3-5.7-3.5-8.2-4.9-4.8-2.7-4.9-2.8-23.8-13.7-6.8-3.9-12.8-7.1-13.3-7.1s-.9-.5-.9-1c0-.6-.4-1-.9-1s-4.4-2-8.5-4.5c-4.2-2.5-7.9-4.5-8.2-4.5-.3 0-1.8-.9-3.3-1.9-2.5-1.8-9.9-6-14.8-8.5-1.3-.6-2.3-1.4-2.3-1.9 0-.4-.5-.7-1.1-.7-.5 0-5.4-2.6-10.7-5.8-5.3-3.1-11-6.4-12.7-7.2-1.6-.8-3.2-1.7-3.5-2-.3-.4-3-2-6-3.6-6.1-3.4-49.1-28.2-55.5-32.1-2.2-1.3-4.8-2.6-5.7-3-1-.3-1.8-1-1.8-1.5s-.4-.7-.9-.3c-.5.3-1.2.1-1.6-.5-.4-.6-3-2.2-5.8-3.7-2.9-1.4-5.4-2.8-5.7-3.2-.3-.3-2.3-1.6-4.5-2.8-2.2-1.1-5.6-3-7.5-4.2-1.9-1.1-5.7-3.2-8.5-4.7-2.7-1.5-6.1-3.4-7.5-4.4-1.4-.9-4.5-2.8-7-4.2-2.5-1.4-16.4-9.3-30.9-17.7-30.4-17.4-35.1-19.2-51.1-19.6-5.8-.1-10.9.1-11.5.4-.5.3-1.4.6-2 .7-15 2.8-29 11.7-39.3 24.9-2.7 3.5-8.6 15.7-9.7 20-.4 1.6-1 3.9-1.3 5-.4 1.1-.8 104.8-.9 230.5-.2 256.4-.6 240.3 7.3 254.9 6.1 11.4 12.3 18.1 22.4 24.5 3.6 2.3 7.4 4.7 8.5 5.4 1.1.6 2.7 1.5 3.5 1.9 1.4.6 20.6 11.7 29.4 16.9 2.2 1.4 4.9 2.7 5.9 3.1.9.3 1.7.9 1.7 1.4 0 .5.4.9.9.9.9 0 17.6 9.3 23.1 12.8 1.4.9 2.8 1.5 3.2 1.4.5-.1.8.2.8.8 0 .5.4 1 .8 1 .5 0 10.3 5.5 21.8 12.1 11.5 6.7 22.4 13 24.2 14 7.6 4.4 11 6.3 15.2 8.7 2.5 1.4 6.2 3.6 8.2 4.9 2.1 1.2 4.2 2.3 4.8 2.3.5 0 1 .4 1 .9s.8 1.1 1.8 1.4c1.7.6 6.6 3.3 18.7 10.4 3.3 2 7.5 4.4 9.3 5.4 1.7 1.1 4.7 2.7 6.5 3.8 1.7 1 4.8 2.7 6.7 3.7 1.9 1.1 4 2.5 4.8 3.1.7.7 1.7 1.3 2.2 1.3.4 0 3.8 1.8 7.4 4 3.6 2.2 7 4 7.6 4 .5 0 1 .3 1 .7 0 .5 1 1.3 2.3 1.9 5 2.4 14.3 7.8 15.8 9 .8.8 1.8 1.4 2.1 1.4 1 0 32.1 18.1 34.1 19.8.9.8 1.7 1.2 1.7.9 0-.4 2.5.9 5.5 2.8s5.6 3.5 5.9 3.5c.2 0 5 2.7 10.5 6 5.6 3.3 10.6 6 11.1 6 .6 0 1 .4 1 1 0 .5.5 1 1 1 .6 0 2.7 1.1 4.8 2.3 3.5 2.3 6.8 4.1 17.7 10.2 2.8 1.5 5.6 3.2 6.3 3.8.7.6 3.2 2 5.5 3.2 2.3 1.1 9.7 5.3 16.4 9.3 6.7 4 12.6 7.2 13.2 7.2.6 0 1.1.4 1.1 1 0 .5.4 1 .8 1 .5 0 4.7 2.2 9.3 5 4.6 2.7 9.2 5 10.1 5 .9 0 1.9.4 2.2.8.3.5 3.8 1.5 7.8 2.2 9.6 1.8 24.3 1.6 29-.4.9-.4 2.3-.9 3.2-1 .8-.1 1.9-.5 2.2-.9.4-.4 1.4-.7 2.3-.7 1.3 0 30.3-16.2 40.3-22.6 2.1-1.3 4.2-2.4 4.8-2.4.5 0 1-.5 1-1 0-.6.5-1 1-1 .8 0 31.5-17.3 39-22 .8-.5 8-4.6 15.9-9.2 8-4.6 17-9.8 20-11.6 3.1-1.8 7.5-4.2 9.9-5.4 2.3-1.2 4.2-2.6 4.2-3 0-.4.5-.8 1.1-.8.9 0 15.1-7.9 19.9-11 .8-.6 2.6-1.6 4-2.2 1.4-.7 2.7-1.5 3-1.8.3-.4 3.4-2.2 7-4.2 6.3-3.4 17.9-10.1 54.5-31.3 9.4-5.4 18-10.4 19.2-10.9 1.3-.6 2.3-1.4 2.3-1.9 0-.4.4-.7.9-.7s12.3-6.6 26.2-14.7c14-8 26.9-15.3 28.7-16.2 1.7-.8 3.2-1.9 3.2-2.3 0-.4.4-.8.9-.8.4 0 4.8-2.3 9.7-5.2 4.9-2.8 10.5-6 12.4-7.1 1.9-1 5.3-2.9 7.5-4.3 2.2-1.3 4.9-2.9 6-3.4 1.1-.6 4.1-2.2 6.6-3.8 2.6-1.5 14.5-8.3 26.5-15.2 17.3-10 23.1-13.8 28.3-19 7.4-7.2 11.5-12 10.3-12-.4 0-.2-.4.4-.8 2.1-1.4 5.7-9.9 7.8-18.3 5.5-21.8-.5-43.5-16.5-59.9-6.2-6.4-11.6-10.1-29.4-20-2.2-1.3-5.3-3.1-7-4.1-1.6-1.1-4.3-2.6-6-3.4-1.6-.8-4.8-2.6-7-4-2.2-1.3-6-3.6-8.5-5s-6.7-3.9-9.5-5.6c-2.7-1.6-6.1-3.5-7.5-4.2-1.4-.6-2.7-1.4-3-1.8-.3-.3-1.8-1.2-3.5-2.1-1.6-.8-10-5.6-18.5-10.5-8.5-5-22.7-13.2-31.5-18.3-8.8-5.1-20.3-11.8-25.5-14.8-5.2-3.1-9.9-5.7-10.3-5.7-.4 0-1.2-.7-1.7-1.5s-1-1.2-1-.8c0 .4-2.7-.9-6.1-2.7-8.4-4.8-14.5-6.8-24.9-8.2-6.8-.9-7.5-.8-8.2.2-.5.6-.8.5-.8-.3 0-.7-.5-1-1.1-.6-.6.3-2.5.8-4.2.9-7 .7-10.4 1.6-18.9 4.9-1.6.6-2.8 1.4-2.8 1.8 0 .5-.9.8-2 .8s-2.3.7-2.6 1.5c-.4.8-1.3 1.5-2.1 1.5s-4.9 3.6-9.2 7.9c-6 6.1-8.8 9.9-11.8 16.3-2.3 4.6-4.4 9.9-4.9 11.8-.4 1.9-.9 4.2-1.1 5-.2.8-.5 5.2-.7 9.7-.4 8.6.6 15.8 2.8 21.8.5 1.1 1.4 3.6 2.2 5.7 4.7 12.7 16.8 25 33.4 33.9 2.5 1.3 4.7 2.7 5 3 .3.3 3 1.9 6 3.6 6.3 3.5 10.5 5.8 17.5 10 2.8 1.6 5.7 3.2 6.5 3.6.8.5 2.4 1.3 3.5 2s6.2 3.6 11.3 6.6c5.1 3 8.9 5.8 8.5 6.2-.8.8-34.3 20.2-41.8 24.3-2.2 1.1-4.2 2.3-4.5 2.6-.3.3-1.6 1.1-3 1.9-1.4.8-6.2 3.6-10.8 6.3-4.6 2.6-8.7 4.8-9.2 4.8s-1 .3-1.2.7c-.1.5-1.6 1.5-3.3 2.4-4.5 2.4-41.1 23.5-65 37.5-2.2 1.3-4.9 2.8-6 3.4-1.1.5-3.8 2.1-6 3.5s-4.7 2.8-5.5 3.2c-.8.5-6.6 3.7-12.8 7.3-6.2 3.6-12.6 7.2-14.2 8.1-1.6.9-3.6 2.2-4.4 2.9-.9.6-1.9 1-2.3.7-.6-.4-1-285.9-.4-293.9 0-.9 1-2 2.2-2.3 1.1-.4 4-2 6.4-3.6 2.4-1.6 4.6-2.9 4.9-2.9.4 0 3.2-1.6 6.2-3.5s5.6-3.5 5.8-3.5c.2 0 4.3-2.3 9.2-5.2 4.9-2.8 10-5.8 11.4-6.5 1.4-.8 4.8-2.8 7.5-4.4 2.8-1.7 5.8-3.3 6.8-3.6.9-.3 1.7-.9 1.7-1.3s.8-1 1.8-1.3c.9-.4 4.4-2.2 7.7-4.2 3.3-1.9 6.7-3.8 7.5-4.1.8-.4 2.2-1.3 3-2 .8-.7 3.9-2.5 6.8-4.1 3-1.5 6.6-3.4 8-4.2 1.5-.8 3-1.8 3.3-2.3.3-.6.8-.9 1-.7.2.1 4.7-2.3 10.1-5.4 5.3-3.1 10-5.7 10.6-5.7.5 0 1.2-.7 1.6-1.5.3-.8 1.3-1.5 2.2-1.5 1 0 2.5-.6 3.3-1.4.9-.8 3.9-2.6 6.6-4.1 2.8-1.4 6.6-3.6 8.5-4.7 15.2-8.9 41-23.7 48-27.6 2.5-1.4 5.3-3.2 6.3-4 .9-.8 1.7-1.1 1.7-.6 0 .5.4.4.8-.1.4-.6 2.1-1.8 3.7-2.7 1.7-1 8.3-4.8 14.8-8.5 6.5-3.8 13.3-7.6 15-8.7 4.8-2.8 15.8-9.1 59.2-34 16-9.2 29.7-17.1 30.5-17.6.8-.5 7.6-4.4 15-8.6 21.7-12.4 28.4-18.1 35.6-29.9 2.7-4.4 5.8-11.1 5.9-12.5 0-.3.4-1.1.8-1.8.5-.6.6-1.2.2-1.2-.3 0-.1-.9.5-1.9.5-1.1 1.2-5.7 1.6-10.3.3-4.5.7-8.9.9-9.6.3-.6.1-1.2-.3-1.2s-.9-1.5-1-3.3c-1.2-17.7-14.7-37.7-32-47.5-24.1-13.5-51.8-29.6-53.3-30.9-.8-.7-2.3-1.3-3.1-1.3-.9 0-1.8-.4-2-.8-.1-.4-6.6-4.4-14.3-8.9-7.7-4.4-20.7-12-28.9-16.7-8.1-4.7-15.2-8.6-15.7-8.6s-.9-.5-.9-1.1c0-.5-.4-.8-.9-.5-.5.3-1.4-.1-2.1-.9-.7-.8-1.9-1.5-2.6-1.5-.8 0-1.4-.5-1.4-1 0-.6-.4-1-1-1-.5 0-4.4-2-8.6-4.5-4.1-2.5-8-4.5-8.5-4.5s-.9-.5-.9-1.1c0-.5-.4-.7-1-.4-.5.3-1 .1-1-.4 0-.6-.5-1.1-1-1.1-.6 0-3.6-1.6-6.6-3.5-3-1.9-5.8-3.5-6.2-3.5-.4 0-3.1-1.6-5.9-3.5-2.9-1.9-5.4-3.5-5.7-3.5-.2 0-11.3-6.3-24.5-14s-24.5-14-25.1-14c-.5 0-1-.4-1-.9s-.8-1.1-1.7-1.4c-1-.4-3.8-1.8-6.3-3.3-2.5-1.5-6.5-3.8-9-5.2-2.5-1.4-5.6-3.2-7-4.2-1.4-.9-3.2-2-4-2.4-.8-.3-3.3-1.7-5.5-3-2.2-1.2-6.7-3.9-10-5.8s-13.6-7.9-23-13.3c-27.8-16-52.9-30.5-54.5-31.6-.8-.5-2.6-1.5-4-2.2-1.4-.7-4.3-2.4-6.5-3.8s-4.7-2.9-5.5-3.3c-.8-.4-2.4-1.2-3.5-1.9-8.3-5-25.7-14.6-29-16-6.8-2.9-16.1-4.5-25-4.5-4.7.1-8.6.2-8.8.4zM190.8 399.4c1.5.8 8.1 4.6 14.7 8.4 6.6 3.8 13.7 7.9 15.8 9.1 8.3 4.7 13.9 7.9 33.2 19.1 8.8 5.1 17.5 10.1 19.3 11.1 1.7 1.1 4.7 2.7 6.5 3.8 45.2 26 56.6 32.6 58.7 33.9 1.4.9 2.7 1.7 3 1.7.3 0 1.6.8 3 1.6 2.2 1.5 32.7 19.1 39 22.6 1.4.8 4.8 2.7 7.5 4.4 2.8 1.6 5.8 3.2 6.8 3.5.9.4 1.7 1 1.7 1.5s.5.9 1 .9c.6 0 5.4 2.5 10.8 5.7 5.3 3.1 11 6.3 12.7 7.2 1.6.9 3.5 2.1 4.2 2.8.7.6 2.3 1.5 3.4 1.8 1.2.4 3.6 1.7 5.5 3s4 2.5 4.7 2.8c.9.3 1.2 33.1 1.2 147.6 0 81-.2 147.4-.5 147.6-.3.2-3.7-1.5-7.5-3.7-3.9-2.2-8.8-5-11-6.3-2.2-1.2-9.6-5.5-16.3-9.4-6.8-3.9-12.8-7.1-13.3-7.1s-.9-.4-.9-.9-.8-1.1-1.7-1.4c-1-.4-3.8-1.8-6.3-3.3-17.9-10.5-22.9-13.4-23.9-13.4-.6 0-1.1-.4-1.1-.9s-1.2-1.4-2.7-2c-1.6-.6-7.1-3.6-12.3-6.7-5.2-3.1-11.5-6.8-14-8.2-2.5-1.3-5.7-3.3-7.1-4.3-1.4-1-2.9-1.6-3.3-1.2-.3.3-.6.1-.6-.5 0-.7-.4-1.2-.9-1.2s-3.9-1.8-7.5-4-7-4-7.6-4c-.5 0-1-.3-1-.8 0-.4-1-1.2-2.3-1.7-3.1-1.5-11.1-5.9-11.7-6.5-.3-.3-1.6-1.1-2.9-1.8-4.4-2.5-8.6-4.9-18.3-10.6-5.3-3.1-10.2-5.6-10.7-5.6-.6 0-1.1-.4-1.1-.8s-2.4-2-5.2-3.5c-2.9-1.6-7.1-3.9-9.3-5.3-2.2-1.3-5.2-2.9-6.7-3.5-1.6-.6-2.8-1.5-2.8-1.9 0-.4-1.1-1.1-2.5-1.4-1.4-.4-2.5-1.1-2.5-1.6 0-.6-.5-1-1.1-1-.6 0-4.9-2.3-9.7-5.1-9.2-5.5-11.1-6.6-20.7-11.9-3.3-1.8-6.6-4-7.4-4.8-1.3-1.2-1.5-21.4-1.5-148.3-.1-80.8.1-146.9.2-146.9.2 0 1.6.6 3 1.4z"/></svg>